<?xml version="1.0" encoding="UTF-8" standalone="no"?>
<!DOCTYPE svg PUBLIC "-//W3C//DTD SVG 1.1//EN" "http://www.w3.org/Graphics/SVG/1.1/DTD/svg11.dtd">
<svg xmlns="http://www.w3.org/2000/svg" version="1.1" viewBox="0.00 0.00 920.00 234.00">
<g stroke-width="2.00" fill="none" stroke-linecap="butt">
<path stroke="#f2c0a5" vector-effect="non-scaling-stroke" d="
  M 207.26 144.78
  A 0.52 0.52 0.0 0 1 206.40 144.78
  C 190.39 121.48 186.93 92.76 181.16 65.84
  C 180.13 61.05 178.41 57.59 173.76 56.29
  C 163.92 53.55 151.94 57.31 152.00 69.51
  Q 152.06 79.39 154.18 90.51
  Q 161.18 127.15 180.58 158.92
  C 186.33 168.35 193.05 176.67 205.24 177.73
  C 221.85 179.17 231.89 162.39 238.53 149.77
  Q 255.03 118.44 260.53 83.41
  C 262.06 73.64 264.55 59.76 251.80 56.26
  C 245.54 54.55 234.13 55.35 232.70 63.74
  C 227.92 91.69 223.02 121.55 207.26 144.78"
/>
<path stroke="#f2c0a5" vector-effect="non-scaling-stroke" d="
  M 420.52 102.34
  Q 420.53 100.76 421.45 102.05
  C 425.64 107.91 430.97 113.90 437.15 117.40
  C 444.11 121.34 451.86 122.80 460.19 124.27
  A 0.39 0.38 -85.6 0 1 460.51 124.65
  Q 460.48 142.19 460.52 159.83
  C 460.53 164.03 461.27 168.81 463.53 171.78
  C 471.87 182.74 488.71 175.97 488.72 162.49
  Q 488.77 117.55 488.74 72.61
  C 488.74 63.99 485.06 55.93 475.59 55.55
  C 469.63 55.31 464.60 58.43 462.11 63.77
  Q 460.59 67.04 460.54 75.15
  Q 460.47 85.64 460.51 96.24
  Q 460.51 96.80 459.96 96.72
  Q 440.40 94.11 431.79 76.45
  C 426.01 64.60 422.49 54.06 406.75 55.74
  C 393.33 57.18 392.00 65.08 392.00 77.28
  Q 391.99 118.01 392.02 158.75
  C 392.02 167.54 394.90 176.70 405.46 176.99
  C 416.25 177.29 420.55 169.03 420.53 159.50
  Q 420.44 130.54 420.52 102.34"
/>
<path stroke="#f2c0a5" vector-effect="non-scaling-stroke" d="
  M 643.30 64.23
  C 638.18 51.64 619.87 52.78 616.08 66.48
  Q 615.51 68.52 615.51 73.09
  Q 615.47 115.44 615.53 157.77
  Q 615.54 164.69 616.51 167.60
  C 620.75 180.30 639.21 180.29 643.64 167.78
  Q 644.72 164.73 644.73 157.56
  Q 644.78 116.33 644.73 75.11
  Q 644.72 67.75 643.30 64.23"
/>
<path stroke="#f2c0a5" vector-effect="non-scaling-stroke" d="
  M 767.15 60.90
  C 752.96 77.60 787.31 112.64 799.36 122.54
  Q 799.74 122.86 799.74 123.35
  Q 799.76 142.69 799.76 161.98
  C 799.77 174.50 813.21 181.80 823.28 174.12
  C 827.83 170.66 829.20 164.76 829.22 159.24
  Q 829.29 141.19 829.20 123.06
  Q 829.19 122.56 829.59 122.25
  Q 846.85 108.55 858.69 90.11
  C 864.50 81.06 870.03 65.74 859.57 58.46
  C 851.46 52.81 841.83 55.45 837.06 64.08
  C 830.54 75.88 826.65 87.92 815.57 96.43
  A 1.54 1.54 0.0 0 1 813.69 96.42
  C 802.88 87.93 799.09 76.98 793.22 65.16
  C 788.08 54.82 774.89 51.79 767.15 60.90"
/>
<path stroke="#f2c0a5" vector-effect="non-scaling-stroke" d="
  M 82.00 149.23
  L 82.00 123.76
  Q 82.00 123.24 82.52 123.24
  Q 99.49 123.28 116.43 123.19
  C 130.54 123.10 134.94 103.57 121.80 98.46
  Q 118.77 97.29 111.50 97.27
  Q 97.02 97.24 82.52 97.25
  Q 82.00 97.25 82.00 96.74
  L 82.00 83.53
  A 0.56 0.55 0.0 0 1 82.56 82.98
  Q 101.44 83.07 120.41 82.93
  C 137.38 82.82 139.62 58.76 122.69 56.36
  Q 120.36 56.03 118.00 56.02
  Q 93.43 55.96 68.86 56.03
  C 59.77 56.06 52.48 56.81 52.49 67.49
  Q 52.51 114.28 52.49 161.07
  C 52.49 170.08 53.68 176.65 64.01 176.72
  Q 75.55 176.80 114.41 176.75
  Q 124.05 176.74 127.75 175.18
  C 140.85 169.65 136.36 149.78 121.24 149.78
  Q 101.88 149.77 82.50 149.73
  Q 82.00 149.73 82.00 149.23"
/>
<path stroke="#f2c0a5" vector-effect="non-scaling-stroke" d="
  M 315.50 96.73
  L 315.50 83.52
  A 0.54 0.53 -90.0 0 1 316.03 82.98
  Q 334.82 83.05 353.69 82.95
  C 372.53 82.85 372.87 56.05 353.01 56.01
  Q 327.53 55.95 302.07 56.02
  C 293.07 56.05 286.00 57.02 286.00 67.50
  Q 285.99 114.45 286.01 161.42
  C 286.01 169.93 287.36 176.57 297.07 176.70
  Q 310.29 176.87 353.86 176.72
  C 374.24 176.65 373.55 149.75 354.48 149.77
  Q 335.32 149.79 315.99 149.73
  A 0.50 0.49 90.0 0 1 315.50 149.23
  L 315.50 123.75
  A 0.53 0.53 0.0 0 1 316.03 123.22
  Q 332.84 123.33 349.67 123.17
  C 363.91 123.03 368.68 103.93 355.54 98.55
  Q 352.44 97.29 345.24 97.28
  Q 330.64 97.26 316.01 97.24
  Q 315.50 97.24 315.50 96.73"
/>
<path stroke="#f2c0a5" vector-effect="non-scaling-stroke" d="
  M 520.81 56.04
  C 515.05 56.07 507.36 60.17 507.19 66.79
  C 506.74 85.49 525.08 82.07 537.23 82.00
  A 0.53 0.53 0.0 0 1 537.76 82.53
  Q 537.72 120.79 537.78 159.07
  Q 537.79 165.27 538.88 168.16
  C 541.54 175.24 549.51 178.83 556.68 176.66
  C 565.06 174.11 567.01 166.76 567.07 158.48
  Q 567.35 120.57 567.21 82.54
  Q 567.21 81.95 567.80 81.96
  Q 576.09 82.16 584.36 81.74
  C 602.49 80.82 601.96 56.28 583.48 56.04
  Q 569.21 55.85 520.81 56.04"
/>
<path stroke="#f2c0a5" vector-effect="non-scaling-stroke" d="
  M 704.57 121.51
  Q 720.14 121.50 735.67 121.44
  C 753.51 121.38 754.37 95.71 734.24 95.76
  Q 719.42 95.79 704.50 95.73
  A 0.51 0.50 0.6 0 1 704.00 95.23
  L 704.00 83.50
  A 0.52 0.52 0.0 0 1 704.52 82.98
  Q 721.09 83.05 737.68 82.94
  C 756.35 82.82 756.66 56.25 737.68 56.05
  Q 721.63 55.89 691.24 56.03
  C 681.85 56.07 674.51 56.71 674.50 67.75
  Q 674.48 113.61 674.52 159.47
  C 674.53 183.59 704.13 182.91 704.03 160.00
  Q 703.95 141.03 704.02 122.05
  Q 704.02 121.51 704.57 121.51"
/>
</g>
<path fill="#e5804a" d="
  M 911.74 201.64
  A 23.15 23.15 0.0 0 1 888.59 224.79
  L 29.35 224.79
  A 23.15 23.15 0.0 0 1 6.20 201.64
  L 6.20 32.16
  A 23.15 23.15 0.0 0 1 29.35 9.01
  L 888.59 9.01
  A 23.15 23.15 0.0 0 1 911.74 32.16
  L 911.74 201.64
  Z
  M 207.26 144.78
  A 0.52 0.52 0.0 0 1 206.40 144.78
  C 190.39 121.48 186.93 92.76 181.16 65.84
  C 180.13 61.05 178.41 57.59 173.76 56.29
  C 163.92 53.55 151.94 57.31 152.00 69.51
  Q 152.06 79.39 154.18 90.51
  Q 161.18 127.15 180.58 158.92
  C 186.33 168.35 193.05 176.67 205.24 177.73
  C 221.85 179.17 231.89 162.39 238.53 149.77
  Q 255.03 118.44 260.53 83.41
  C 262.06 73.64 264.55 59.76 251.80 56.26
  C 245.54 54.55 234.13 55.35 232.70 63.74
  C 227.92 91.69 223.02 121.55 207.26 144.78
  Z
  M 420.52 102.34
  Q 420.53 100.76 421.45 102.05
  C 425.64 107.91 430.97 113.90 437.15 117.40
  C 444.11 121.34 451.86 122.80 460.19 124.27
  A 0.39 0.38 -85.6 0 1 460.51 124.65
  Q 460.48 142.19 460.52 159.83
  C 460.53 164.03 461.27 168.81 463.53 171.78
  C 471.87 182.74 488.71 175.97 488.72 162.49
  Q 488.77 117.55 488.74 72.61
  C 488.74 63.99 485.06 55.93 475.59 55.55
  C 469.63 55.31 464.60 58.43 462.11 63.77
  Q 460.59 67.04 460.54 75.15
  Q 460.47 85.64 460.51 96.24
  Q 460.51 96.80 459.96 96.72
  Q 440.40 94.11 431.79 76.45
  C 426.01 64.60 422.49 54.06 406.75 55.74
  C 393.33 57.18 392.00 65.08 392.00 77.28
  Q 391.99 118.01 392.02 158.75
  C 392.02 167.54 394.90 176.70 405.46 176.99
  C 416.25 177.29 420.55 169.03 420.53 159.50
  Q 420.44 130.54 420.52 102.34
  Z
  M 643.30 64.23
  C 638.18 51.64 619.87 52.78 616.08 66.48
  Q 615.51 68.52 615.51 73.09
  Q 615.47 115.44 615.53 157.77
  Q 615.54 164.69 616.51 167.60
  C 620.75 180.30 639.21 180.29 643.64 167.78
  Q 644.72 164.73 644.73 157.56
  Q 644.78 116.33 644.73 75.11
  Q 644.72 67.75 643.30 64.23
  Z
  M 767.15 60.90
  C 752.96 77.60 787.31 112.64 799.36 122.54
  Q 799.74 122.86 799.74 123.35
  Q 799.76 142.69 799.76 161.98
  C 799.77 174.50 813.21 181.80 823.28 174.12
  C 827.83 170.66 829.20 164.76 829.22 159.24
  Q 829.29 141.19 829.20 123.06
  Q 829.19 122.56 829.59 122.25
  Q 846.85 108.55 858.69 90.11
  C 864.50 81.06 870.03 65.74 859.57 58.46
  C 851.46 52.81 841.83 55.45 837.06 64.08
  C 830.54 75.88 826.65 87.92 815.57 96.43
  A 1.54 1.54 0.0 0 1 813.69 96.42
  C 802.88 87.93 799.09 76.98 793.22 65.16
  C 788.08 54.82 774.89 51.79 767.15 60.90
  Z
  M 82.00 149.23
  L 82.00 123.76
  Q 82.00 123.24 82.52 123.24
  Q 99.49 123.28 116.43 123.19
  C 130.54 123.10 134.94 103.57 121.80 98.46
  Q 118.77 97.29 111.50 97.27
  Q 97.02 97.24 82.52 97.25
  Q 82.00 97.25 82.00 96.74
  L 82.00 83.53
  A 0.56 0.55 0.0 0 1 82.56 82.98
  Q 101.44 83.07 120.41 82.93
  C 137.38 82.82 139.62 58.76 122.69 56.36
  Q 120.36 56.03 118.00 56.02
  Q 93.43 55.96 68.86 56.03
  C 59.77 56.06 52.48 56.81 52.49 67.49
  Q 52.51 114.28 52.49 161.07
  C 52.49 170.08 53.68 176.65 64.01 176.72
  Q 75.55 176.80 114.41 176.75
  Q 124.05 176.74 127.75 175.18
  C 140.85 169.65 136.36 149.78 121.24 149.78
  Q 101.88 149.77 82.50 149.73
  Q 82.00 149.73 82.00 149.23
  Z
  M 315.50 96.73
  L 315.50 83.52
  A 0.54 0.53 -90.0 0 1 316.03 82.98
  Q 334.82 83.05 353.69 82.95
  C 372.53 82.85 372.87 56.05 353.01 56.01
  Q 327.53 55.95 302.07 56.02
  C 293.07 56.05 286.00 57.02 286.00 67.50
  Q 285.99 114.45 286.01 161.42
  C 286.01 169.93 287.36 176.57 297.07 176.70
  Q 310.29 176.87 353.86 176.72
  C 374.24 176.65 373.55 149.75 354.48 149.77
  Q 335.32 149.79 315.99 149.73
  A 0.50 0.49 90.0 0 1 315.50 149.23
  L 315.50 123.75
  A 0.53 0.53 0.0 0 1 316.03 123.22
  Q 332.84 123.33 349.67 123.17
  C 363.91 123.03 368.68 103.93 355.54 98.55
  Q 352.44 97.29 345.24 97.28
  Q 330.64 97.26 316.01 97.24
  Q 315.50 97.24 315.50 96.73
  Z
  M 520.81 56.04
  C 515.05 56.07 507.36 60.17 507.19 66.79
  C 506.74 85.49 525.08 82.07 537.23 82.00
  A 0.53 0.53 0.0 0 1 537.76 82.53
  Q 537.72 120.79 537.78 159.07
  Q 537.79 165.27 538.88 168.16
  C 541.54 175.24 549.51 178.83 556.68 176.66
  C 565.06 174.11 567.01 166.76 567.07 158.48
  Q 567.35 120.57 567.21 82.54
  Q 567.21 81.95 567.80 81.96
  Q 576.09 82.16 584.36 81.74
  C 602.49 80.82 601.96 56.28 583.48 56.04
  Q 569.21 55.85 520.81 56.04
  Z
  M 704.57 121.51
  Q 720.14 121.50 735.67 121.44
  C 753.51 121.38 754.37 95.71 734.24 95.76
  Q 719.42 95.79 704.50 95.73
  A 0.51 0.50 0.6 0 1 704.00 95.23
  L 704.00 83.50
  A 0.52 0.52 0.0 0 1 704.52 82.98
  Q 721.09 83.05 737.68 82.94
  C 756.35 82.82 756.66 56.25 737.68 56.05
  Q 721.63 55.89 691.24 56.03
  C 681.85 56.07 674.51 56.71 674.50 67.75
  Q 674.48 113.61 674.52 159.47
  C 674.53 183.59 704.13 182.91 704.03 160.00
  Q 703.95 141.03 704.02 122.05
  Q 704.02 121.51 704.57 121.51
  Z"
/>
<path fill="#ffffff" d="
  M 207.26 144.78
  C 223.02 121.55 227.92 91.69 232.70 63.74
  C 234.13 55.35 245.54 54.55 251.80 56.26
  C 264.55 59.76 262.06 73.64 260.53 83.41
  Q 255.03 118.44 238.53 149.77
  C 231.89 162.39 221.85 179.17 205.24 177.73
  C 193.05 176.67 186.33 168.35 180.58 158.92
  Q 161.18 127.15 154.18 90.51
  Q 152.06 79.39 152.00 69.51
  C 151.94 57.31 163.92 53.55 173.76 56.29
  C 178.41 57.59 180.13 61.05 181.16 65.84
  C 186.93 92.76 190.39 121.48 206.40 144.78
  A 0.52 0.52 0.0 0 0 207.26 144.78
  Z"
/>
<path fill="#ffffff" d="
  M 420.52 102.34
  Q 420.44 130.54 420.53 159.50
  C 420.55 169.03 416.25 177.29 405.46 176.99
  C 394.90 176.70 392.02 167.54 392.02 158.75
  Q 391.99 118.01 392.00 77.28
  C 392.00 65.08 393.33 57.18 406.75 55.74
  C 422.49 54.06 426.01 64.60 431.79 76.45
  Q 440.40 94.11 459.96 96.72
  Q 460.51 96.80 460.51 96.24
  Q 460.47 85.64 460.54 75.15
  Q 460.59 67.04 462.11 63.77
  C 464.60 58.43 469.63 55.31 475.59 55.55
  C 485.06 55.93 488.74 63.99 488.74 72.61
  Q 488.77 117.55 488.72 162.49
  C 488.71 175.97 471.87 182.74 463.53 171.78
  C 461.27 168.81 460.53 164.03 460.52 159.83
  Q 460.48 142.19 460.51 124.65
  A 0.39 0.38 -85.6 0 0 460.19 124.27
  C 451.86 122.80 444.11 121.34 437.15 117.40
  C 430.97 113.90 425.64 107.91 421.45 102.05
  Q 420.53 100.76 420.52 102.34
  Z"
/>
<path fill="#ffffff" d="
  M 616.08 66.48
  C 619.87 52.78 638.18 51.64 643.30 64.23
  Q 644.72 67.75 644.73 75.11
  Q 644.78 116.33 644.73 157.56
  Q 644.72 164.73 643.64 167.78
  C 639.21 180.29 620.75 180.30 616.51 167.60
  Q 615.54 164.69 615.53 157.77
  Q 615.47 115.44 615.51 73.09
  Q 615.51 68.52 616.08 66.48
  Z"
/>
<path fill="#ffffff" d="
  M 767.15 60.90
  C 774.89 51.79 788.08 54.82 793.22 65.16
  C 799.09 76.98 802.88 87.93 813.69 96.42
  A 1.54 1.54 0.0 0 0 815.57 96.43
  C 826.65 87.92 830.54 75.88 837.06 64.08
  C 841.83 55.45 851.46 52.81 859.57 58.46
  C 870.03 65.74 864.50 81.06 858.69 90.11
  Q 846.85 108.55 829.59 122.25
  Q 829.19 122.56 829.20 123.06
  Q 829.29 141.19 829.22 159.24
  C 829.20 164.76 827.83 170.66 823.28 174.12
  C 813.21 181.80 799.77 174.50 799.76 161.98
  Q 799.76 142.69 799.74 123.35
  Q 799.74 122.86 799.36 122.54
  C 787.31 112.64 752.96 77.60 767.15 60.90
  Z"
/>
<path fill="#ffffff" d="
  M 82.50 149.73
  Q 101.88 149.77 121.24 149.78
  C 136.36 149.78 140.85 169.65 127.75 175.18
  Q 124.05 176.74 114.41 176.75
  Q 75.55 176.80 64.01 176.72
  C 53.68 176.65 52.49 170.08 52.49 161.07
  Q 52.51 114.28 52.49 67.49
  C 52.48 56.81 59.77 56.06 68.86 56.03
  Q 93.43 55.96 118.00 56.02
  Q 120.36 56.03 122.69 56.36
  C 139.62 58.76 137.38 82.82 120.41 82.93
  Q 101.44 83.07 82.56 82.98
  A 0.56 0.55 -0.0 0 0 82.00 83.53
  L 82.00 96.74
  Q 82.00 97.25 82.52 97.25
  Q 97.02 97.24 111.50 97.27
  Q 118.77 97.29 121.80 98.46
  C 134.94 103.57 130.54 123.10 116.43 123.19
  Q 99.49 123.28 82.52 123.24
  Q 82.00 123.24 82.00 123.76
  L 82.00 149.23
  Q 82.00 149.73 82.50 149.73
  Z"
/>
<path fill="#ffffff" d="
  M 316.01 97.24
  Q 330.64 97.26 345.24 97.28
  Q 352.44 97.29 355.54 98.55
  C 368.68 103.93 363.91 123.03 349.67 123.17
  Q 332.84 123.33 316.03 123.22
  A 0.53 0.53 0.0 0 0 315.50 123.75
  L 315.50 149.23
  A 0.50 0.49 90.0 0 0 315.99 149.73
  Q 335.32 149.79 354.48 149.77
  C 373.55 149.75 374.24 176.65 353.86 176.72
  Q 310.29 176.87 297.07 176.70
  C 287.36 176.57 286.01 169.93 286.01 161.42
  Q 285.99 114.45 286.00 67.50
  C 286.00 57.02 293.07 56.05 302.07 56.02
  Q 327.53 55.95 353.01 56.01
  C 372.87 56.05 372.53 82.85 353.69 82.95
  Q 334.82 83.05 316.03 82.98
  A 0.54 0.53 90.0 0 0 315.50 83.52
  L 315.50 96.73
  Q 315.50 97.24 316.01 97.24
  Z"
/>
<path fill="#ffffff" d="
  M 507.19 66.79
  C 507.36 60.17 515.05 56.07 520.81 56.04
  Q 569.21 55.85 583.48 56.04
  C 601.96 56.28 602.49 80.82 584.36 81.74
  Q 576.09 82.16 567.80 81.96
  Q 567.21 81.95 567.21 82.54
  Q 567.35 120.57 567.07 158.48
  C 567.01 166.76 565.06 174.11 556.68 176.66
  C 549.51 178.83 541.54 175.24 538.88 168.16
  Q 537.79 165.27 537.78 159.07
  Q 537.72 120.79 537.76 82.53
  A 0.53 0.53 0.0 0 0 537.23 82.00
  C 525.08 82.07 506.74 85.49 507.19 66.79
  Z"
/>
<path fill="#ffffff" d="
  M 704.02 122.05
  Q 703.95 141.03 704.03 160.00
  C 704.13 182.91 674.53 183.59 674.52 159.47
  Q 674.48 113.61 674.50 67.75
  C 674.51 56.71 681.85 56.07 691.24 56.03
  Q 721.63 55.89 737.68 56.05
  C 756.66 56.25 756.35 82.82 737.68 82.94
  Q 721.09 83.05 704.52 82.98
  A 0.52 0.52 0.0 0 0 704.00 83.50
  L 704.00 95.23
  A 0.51 0.50 0.6 0 0 704.50 95.73
  Q 719.42 95.79 734.24 95.76
  C 754.37 95.71 753.51 121.38 735.67 121.44
  Q 720.14 121.50 704.57 121.51
  Q 704.02 121.51 704.02 122.05
  Z"
/>
</svg>
